<?xml version="1.0" encoding="utf-8"?>
<!-- Generator: Adobe Illustrator 16.0.3, SVG Export Plug-In . SVG Version: 6.00 Build 0)  -->
<!DOCTYPE svg PUBLIC "-//W3C//DTD SVG 1.1//EN" "http://www.w3.org/Graphics/SVG/1.1/DTD/svg11.dtd">
<svg version="1.1" id="Ebene_1" xmlns="http://www.w3.org/2000/svg" xmlns:xlink="http://www.w3.org/1999/xlink" x="0px" y="0px"
	 width="521.552px" height="303.448px" viewBox="0 0 521.552 303.448" enable-background="new 0 0 521.552 303.448"
	 xml:space="preserve">
<g>
	
		<ellipse transform="matrix(0.853 -0.5219 0.5219 0.853 -60.1312 102.8581)" fill="#FFFFFF" cx="152.535" cy="158.178" rx="100.486" ry="118.538"/>
	<path d="M241.707,103.721c0,0,0.31,0.599,0.909,1.759c0.3,0.58,0.672,1.3,1.114,2.156c0.222,0.428,0.46,0.89,0.717,1.385
		c0.252,0.52,0.521,1.075,0.807,1.664c0.571,1.18,1.209,2.498,1.91,3.948c0.651,1.451,1.362,3.035,2.131,4.747
		c0.766,1.71,1.505,3.586,2.34,5.565c0.815,1.988,1.602,4.133,2.475,6.385c3.298,9.078,6.813,20.313,9.284,33.872
		c1.178,6.783,2.117,14.154,2.388,22.107c0.28,7.946-0.08,16.495-1.662,25.442c-0.412,2.23-0.82,4.506-1.411,6.771
		c-0.283,1.136-0.538,2.293-0.859,3.438c-0.341,1.144-0.683,2.293-1.026,3.447l-0.526,1.744l-0.613,1.728
		c-0.418,1.158-0.839,2.322-1.261,3.491c-0.462,1.155-0.979,2.297-1.478,3.458c-0.508,1.157-0.996,2.337-1.591,3.471
		c-0.578,1.149-1.159,2.304-1.742,3.462c-0.583,1.165-1.296,2.261-1.952,3.404c-1.297,2.3-2.823,4.488-4.337,6.736
		c-3.161,4.383-6.695,8.695-10.771,12.625c-1.983,2.029-4.182,3.849-6.365,5.74c-1.12,0.905-2.284,1.762-3.439,2.646L225,276.23
		c0.39-0.221-0.78,0.489-0.724,0.458l-0.185,0.126l-0.368,0.251l-0.737,0.503c-0.985,0.671-1.974,1.345-2.965,2.02
		c-1.404,0.814-2.813,1.631-4.226,2.45c-0.701,0.392-1.452,0.837-2.122,1.179l-2.011,1.015c-1.352,0.659-2.688,1.383-4.079,1.982
		c-5.528,2.52-11.355,4.54-17.362,6.187c-6.022,1.563-12.222,2.638-18.523,3.279c-6.297,0.538-12.668,0.582-19.052,0.201
		c-6.369-0.453-12.725-1.373-19.032-2.692c-6.278-1.392-12.491-3.196-18.57-5.44c-6.039-2.309-11.984-4.951-17.738-7.999
		c-23.058-12.165-42.878-30.652-57.781-52.427c-0.751-1.249-0.289-0.467-0.494-0.8l-0.141-0.21l-0.282-0.42l-0.565-0.839
		l-1.129-1.68l-1.129-1.679l-1.394-2.315l-2.768-4.695l-2.417-4.38c-3.172-5.871-6.063-11.941-8.596-18.202
		c-5.128-12.492-8.867-25.74-10.923-39.438c-0.988-6.854-1.536-13.823-1.615-20.839c-0.023-7.028,0.486-14.091,1.468-21.142
		c1.14-7.031,2.702-14.046,4.927-20.906c2.284-6.851,5.14-13.54,8.56-19.959c3.509-6.385,7.546-12.485,12.109-18.155
		c4.645-5.612,9.69-10.85,15.197-15.465c1.351-1.176,2.793-2.247,4.192-3.351c1.412-1.09,2.829-2.159,4.309-3.135
		c1.463-0.997,2.922-1.987,4.396-2.94c1.511-0.887,3.018-1.771,4.521-2.652l3.228-1.852l1.62-0.738
		c1.139-0.519,2.274-1.037,3.406-1.553c1.801-0.834,3.634-1.585,5.446-2.338l1.362-0.555l0.68-0.273l0.604-0.209l2.398-0.813
		c6.382-2.157,12.873-3.523,19.23-4.381c3.193-0.348,6.338-0.711,9.464-0.739c1.56-0.03,3.104-0.133,4.64-0.077
		c1.529,0.059,3.052,0.117,4.568,0.175c12.09,0.623,23.168,3.553,32.91,7.396c1.228,0.454,2.426,0.95,3.596,1.501
		c1.166,0.535,2.326,1.067,3.479,1.596c2.274,1.102,4.461,2.28,6.602,3.412c2.097,1.247,4.158,2.437,6.126,3.694
		c1.947,1.307,3.871,2.533,5.686,3.856c7.294,5.24,13.475,10.73,18.819,16.078c10.642,10.763,18.131,20.74,23.907,28.958
		c5.701,8.274,9.67,14.855,12.254,19.411c1.332,2.247,2.247,4.027,2.911,5.195c0.647,1.177,0.981,1.785,0.981,1.785L241.707,103.721
		z M234.838,107.822c0,0-0.393-0.525-1.154-1.544c-0.379-0.508-0.851-1.139-1.41-1.889c-0.28-0.375-0.581-0.778-0.904-1.211
		c-0.328-0.429-0.723-0.857-1.116-1.327c-0.795-0.931-1.684-1.97-2.661-3.113c-1.023-1.104-2.194-2.263-3.422-3.532
		c-0.6-0.646-1.281-1.265-1.996-1.896c-0.705-0.633-1.435-1.289-2.188-1.965c-0.729-0.693-1.567-1.327-2.412-1.991
		c-0.841-0.661-1.706-1.341-2.596-2.039c-3.711-2.61-7.832-5.409-12.717-7.72c-4.835-2.357-10.231-4.459-16.098-5.944
		c-5.879-1.455-12.177-2.35-18.596-2.48c-6.413-0.145-12.93,0.462-19.127,1.804c-1.547,0.336-3.078,0.645-4.582,1.113
		c-0.743,0.208-1.489,0.417-2.239,0.627c-0.727,0.238-1.458,0.477-2.192,0.717c-0.363,0.12-0.724,0.232-1.084,0.338l-1.065,0.404
		c-0.698,0.259-1.4,0.519-2.105,0.781c-1.373,0.58-2.737,1.126-4.047,1.735c-2.636,1.192-5.108,2.542-7.469,3.89
		c-2.323,1.456-4.587,2.789-6.665,4.402l-0.804,0.541l-0.197,0.132l-0.101,0.113l-0.203,0.22c-0.275,0.28-0.538,0.565-0.838,0.771
		c-0.909,0.638-1.821,1.277-2.737,1.918l-1.458,1.021c-0.971,0.582,1.109-0.645,0.871-0.493l-0.09,0.082l-0.18,0.164l-0.36,0.324
		c-2.009,1.614-3.721,3.531-5.503,5.347c-1.716,1.896-3.313,3.928-4.898,6.03c-1.537,2.156-2.999,4.446-4.443,6.86
		c-1.396,2.459-2.708,5.078-3.996,7.841c-1.211,2.806-2.401,5.761-3.416,8.896c-1.02,3.149-1.855,6.466-2.609,9.921
		c-0.626,3.477-1.197,7.081-1.465,10.807c-0.508,7.444-0.165,15.336,1.456,23.214c0.337,1.986,0.906,3.927,1.36,5.917l0.896,2.926
		l0.445,1.473l0.519,1.451l1.035,2.917l0.994,2.449l0.491,1.255l0.904,1.81l0.904,1.811l0.452,0.905l0.226,0.453l0.113,0.226
		c-0.12-0.188,0.427,0.74-0.24-0.364l1.493,2.762l0.741,1.39l0.805,1.346l1.603,2.708l1.722,2.623l0.859,1.319l0.918,1.27
		l1.833,2.552c1.312,1.617,2.54,3.332,3.936,4.877c5.404,6.375,11.555,12.056,18.198,16.931
		c13.336,9.638,28.831,15.748,44.031,16.738c3.789,0.237,7.563,0.235,11.286-0.07c3.697-0.39,7.366-0.975,10.924-1.92
		c0.901-0.207,1.756-0.528,2.643-0.779l1.322-0.396c0.438-0.131,0.744-0.264,1.126-0.391c0.729-0.257,1.467-0.502,2.216-0.739
		c1.083-0.509,2.163-1.017,3.239-1.523l0.808-0.38l0.403-0.19l0.202-0.095c0.187-0.101-0.864,0.521-0.349,0.222l1.22-0.624
		c0.811-0.419,1.645-0.809,2.448-1.244c1.552-0.939,3.215-1.746,4.698-2.79c12.343-7.694,22.535-19.096,29.344-31.977
		c6.924-12.848,10.171-26.934,10.635-39.517c0.428-12.646-1.821-23.762-4.663-32.473c-0.389-1.082-0.768-2.133-1.135-3.156
		c-0.369-1.022-0.706-2.024-1.134-2.956c-0.402-0.941-0.792-1.854-1.169-2.735c-0.371-0.884-0.735-1.736-1.153-2.527
		c-0.804-1.595-1.521-3.086-2.222-4.421c-0.743-1.295-1.419-2.471-2.024-3.525c-0.308-0.525-0.572-1.022-0.864-1.484
		c-0.305-0.467-0.589-0.902-0.853-1.306c-0.526-0.807-0.97-1.486-1.326-2.033c-0.714-1.094-1.082-1.658-1.082-1.658L234.838,107.822
		z"/>
</g>
<g>
	
		<ellipse transform="matrix(-0.853 -0.5219 0.5219 -0.853 607.068 487.335)" fill="#FFFFFF" cx="372.162" cy="158.178" rx="100.486" ry="118.538"/>
	<path d="M289.827,107.866c-0.141,0.215-0.478,0.731-1.006,1.541c-0.356,0.547-0.8,1.226-1.327,2.033
		c-0.263,0.404-0.547,0.839-0.852,1.306c-0.293,0.461-0.557,0.958-0.864,1.484c-0.604,1.054-1.28,2.23-2.024,3.525
		c-0.701,1.335-1.418,2.827-2.223,4.421c-0.417,0.791-0.781,1.643-1.152,2.527c-0.377,0.882-0.767,1.794-1.169,2.735
		c-0.427,0.932-0.765,1.933-1.134,2.956c-0.367,1.023-0.746,2.075-1.135,3.156c-2.842,8.711-5.092,19.827-4.663,32.473
		c0.464,12.583,3.711,26.669,10.635,39.516c6.809,12.881,17.001,24.283,29.343,31.977c1.484,1.045,3.147,1.852,4.699,2.791
		c0.803,0.436,1.637,0.824,2.448,1.244l1.22,0.623c0.516,0.299-0.535-0.322-0.348-0.221l0.201,0.094l0.402,0.191l0.809,0.379
		c1.076,0.508,2.155,1.016,3.238,1.523c0.748,0.238,1.486,0.482,2.216,0.74c0.382,0.127,0.688,0.26,1.126,0.391l1.322,0.396
		c0.887,0.25,1.741,0.572,2.643,0.779c3.558,0.945,7.227,1.529,10.924,1.92c3.723,0.305,7.496,0.307,11.285,0.07
		c15.201-0.99,30.695-7.102,44.031-16.738c6.643-4.875,12.794-10.557,18.198-16.932c1.396-1.545,2.624-3.26,3.937-4.877l1.833-2.551
		l0.918-1.27l0.858-1.32l1.723-2.623l1.604-2.707l0.805-1.346l0.741-1.391l1.492-2.762c-0.666,1.104-0.119,0.176-0.239,0.363
		l0.113-0.226l0.226-0.453l0.452-0.905l0.904-1.811l0.903-1.81l0.491-1.256l0.994-2.448l1.034-2.917l0.52-1.45l0.444-1.473
		l0.896-2.927c0.454-1.989,1.022-3.93,1.36-5.916c1.62-7.878,1.963-15.77,1.455-23.214c-0.268-3.727-0.839-7.331-1.465-10.808
		c-0.755-3.456-1.59-6.772-2.609-9.921c-1.015-3.135-2.205-6.09-3.416-8.896c-1.288-2.763-2.6-5.382-3.996-7.84
		c-1.444-2.415-2.906-4.704-4.443-6.86c-1.585-2.102-3.183-4.134-4.898-6.03c-1.781-1.816-3.494-3.733-5.503-5.347l-0.36-0.324
		l-0.18-0.164l-0.09-0.082c-0.238-0.152,1.841,1.074,0.87,0.492l-1.458-1.021c-0.915-0.642-1.827-1.281-2.737-1.918
		c-0.301-0.206-0.563-0.491-0.838-0.771l-0.203-0.22l-0.101-0.113l-0.197-0.132l-0.804-0.541c-2.078-1.613-4.342-2.946-6.665-4.402
		c-2.36-1.348-4.833-2.698-7.469-3.89c-1.31-0.609-2.673-1.155-4.047-1.735c-0.705-0.262-1.406-0.522-2.104-0.781l-1.065-0.404
		c-0.359-0.106-0.721-0.218-1.083-0.338c-0.734-0.24-1.466-0.479-2.193-0.717c-0.749-0.21-1.496-0.419-2.238-0.627
		c-1.505-0.468-3.034-0.777-4.582-1.113c-6.197-1.342-12.714-1.949-19.128-1.804c-6.418,0.13-12.717,1.026-18.596,2.48
		c-5.867,1.485-11.264,3.587-16.098,5.944c-4.886,2.312-9.007,5.11-12.718,7.72c-0.89,0.698-1.755,1.378-2.596,2.039
		c-0.845,0.664-1.683,1.297-2.413,1.991c-0.752,0.676-1.482,1.332-2.188,1.965c-0.715,0.63-1.396,1.25-1.996,1.896
		c-1.227,1.27-2.398,2.428-3.422,3.532c-0.978,1.144-1.865,2.183-2.661,3.113c-0.394,0.47-0.788,0.898-1.116,1.327
		c-0.322,0.433-0.625,0.837-0.904,1.211c-0.56,0.75-1.031,1.381-1.41,1.889c-0.762,1.019-1.154,1.544-1.154,1.544L289.827,107.866z
		 M282.937,103.825l0.098-0.177c0,0,0.334-0.607,0.982-1.785c0.663-1.168,1.578-2.948,2.91-5.195
		c2.584-4.556,6.553-11.137,12.254-19.411c5.775-8.218,13.266-18.195,23.906-28.958c5.345-5.348,11.525-10.838,18.82-16.078
		c1.814-1.323,3.738-2.55,5.686-3.856c1.969-1.257,4.029-2.447,6.125-3.694c2.143-1.131,4.328-2.31,6.604-3.412
		c1.152-0.529,2.313-1.061,3.479-1.596c1.17-0.551,2.368-1.047,3.596-1.501c9.742-3.843,20.82-6.774,32.91-7.396
		c1.517-0.058,3.04-0.116,4.568-0.175c1.537-0.057,3.08,0.047,4.641,0.077c3.125,0.028,6.271,0.392,9.464,0.739
		c6.357,0.858,12.848,2.224,19.23,4.382l2.397,0.813l0.604,0.209l0.68,0.273l1.362,0.554c1.813,0.753,3.645,1.505,5.445,2.339
		c1.132,0.516,2.267,1.034,3.406,1.553l1.619,0.738l3.228,1.852c1.502,0.881,3.009,1.766,4.521,2.652
		c1.474,0.953,2.932,1.943,4.396,2.94c1.479,0.976,2.896,2.045,4.309,3.135c1.398,1.104,2.841,2.174,4.191,3.35
		c5.507,4.615,10.552,9.853,15.197,15.465c4.563,5.67,8.6,11.77,12.109,18.155c3.42,6.419,6.275,13.109,8.559,19.959
		c2.225,6.86,3.787,13.875,4.927,20.907c0.982,7.05,1.492,14.114,1.469,21.142c-0.079,7.016-0.627,13.985-1.615,20.839
		c-2.057,13.698-5.795,26.946-10.924,39.438c-2.533,6.26-5.424,12.332-8.596,18.203l-2.417,4.379l-2.769,4.695l-1.394,2.314
		l-1.13,1.68l-1.13,1.68l-0.564,0.838l-0.282,0.42l-0.142,0.211c-0.204,0.332,0.258-0.449-0.493,0.801
		c-14.902,21.773-34.723,40.26-57.78,52.426c-5.754,3.047-11.7,5.689-17.739,7.998c-6.079,2.244-12.292,4.049-18.569,5.441
		c-6.308,1.318-12.664,2.238-19.032,2.691c-6.385,0.381-12.756,0.338-19.053-0.201c-6.301-0.641-12.501-1.717-18.523-3.279
		c-6.007-1.646-11.834-3.666-17.361-6.186c-1.392-0.6-2.729-1.324-4.08-1.984l-2.011-1.014c-0.671-0.342-1.421-0.787-2.122-1.178
		c-1.413-0.82-2.821-1.637-4.226-2.451c-0.991-0.674-1.979-1.348-2.965-2.02l-0.737-0.502l-0.368-0.252l-0.185-0.125
		c0.057,0.029-1.113-0.68-0.724-0.459l-1.747-1.316c-1.156-0.883-2.319-1.74-3.439-2.645c-2.184-1.893-4.382-3.711-6.365-5.74
		c-4.075-3.93-7.609-8.242-10.771-12.625c-1.512-2.248-3.039-4.438-4.336-6.736c-0.656-1.145-1.369-2.24-1.952-3.404
		c-0.583-1.158-1.163-2.313-1.741-3.463c-0.596-1.133-1.084-2.313-1.592-3.471c-0.498-1.16-1.015-2.303-1.478-3.457
		c-0.422-1.17-0.842-2.334-1.262-3.492l-0.612-1.727l-0.526-1.744c-0.344-1.154-0.686-2.305-1.026-3.447
		c-0.321-1.146-0.575-2.303-0.858-3.439c-0.592-2.266-1-4.541-1.412-6.771c-1.582-8.947-1.943-17.496-1.662-25.442
		c0.271-7.954,1.21-15.324,2.387-22.107c2.473-13.559,5.988-24.794,9.285-33.872c0.873-2.251,1.659-4.397,2.474-6.385
		c0.836-1.979,1.575-3.855,2.341-5.565c0.769-1.712,1.479-3.296,2.13-4.747c0.702-1.451,1.34-2.768,1.911-3.948
		c0.286-0.589,0.555-1.144,0.808-1.664c0.256-0.495,0.494-0.957,0.715-1.385c0.443-0.856,0.815-1.577,1.115-2.157
		C282.539,104.596,282.826,104.041,282.937,103.825z"/>
</g>
<path fill="#FFFFFF" stroke="#E41B21" stroke-width="14" stroke-miterlimit="10" d="M220.588,180.205c0,6.627-5.372,12-12,12
	h-44.053c-6.627,0-12-5.373-12-12v-44.053c0-6.628,5.373-12,12-12h44.053c6.628,0,12,5.372,12,12V180.205z"/>
<path fill="#FFFFFF" stroke="#324999" stroke-width="14" stroke-miterlimit="10" d="M372.162,180.205c0,6.627-5.372,12-12,12
	h-44.053c-6.627,0-12-5.373-12-12v-44.053c0-6.629,5.373-12,12-12h44.053c6.628,0,12,5.371,12,12V180.205z"/>
<g>
</g>
<g>
</g>
<g>
</g>
<g>
</g>
<g>
</g>
<g>
</g>
</svg>
